:SAMPLES-PER-SECOND 30
:FULLY-SPECIFIED
:DEGREES
779
root  -48.9126 40.4523 -31.082 4.53389 38.7025 4.84242
RightUpLeg  -2.08505 -22.7657 -22.3675
RightLeg  15.5889 -20.768 -4.83717
RightFoot  -1.98418 -0.215551 2.48941
RightToes  0.00048216 0.542163 -0.142577
Spine  11.8194 1.10862 8.56273
Spine1  8.70416 3.3385 -5.08732
HEad  -10.4443 14.2679 -6.88826
LeftShoulder1  8.16708 -11.8099 -46.5197
LeftArm  -2.77138 19.1054 -25.4283
LeftForeArm  32.7527 -22.2318 -3.3166
LeftHand  -0.25398 0.0180481 5.50724
RightShoulder  5.16941 9.27599 34.4966
RightArm  0.0301366 -36.2134 37.9068
RightForeArm  0.619215 19.5303 5.38611
RightHand  -0.78402 1.48539 -13.3666
LeftUpLeg  -5.92562 26.2359 -2.41591
LeftLeg  17.1876 24.0679 3.99199
LeftFoot  -11.2454 0.0661673 1.30155
LeftToes  1.06246e-005 4.65856e-005 -8.18502e-006
780
root  -48.0937 40.4356 -31.168 3.71158 40.587 4.75929
RightUpLeg  -4.49685 -16.9053 -20.2093
RightLeg  19.6946 -9.88249 -4.2662
RightFoot  -5.10986 -0.0663068 0.703099
RightToes  0.00048216 0.542163 -0.142577
Spine  11.6413 1.03814 7.66287
Spine1  8.65645 3.17112 -5.39565
HEad  -9.0692 13.7504 -6.08066
LeftShoulder1  8.2978 -11.8799 -47.0623
LeftArm  -1.87503 15.7713 -24.8238
LeftForeArm  33.1571 -21.0794 -3.44507
LeftHand  -0.25398 0.0180481 5.50724
RightShoulder  5.18249 9.26611 34.6285
RightArm  -0.0788282 -35.9236 39.0611
RightForeArm  1.56393 19.1023 5.47153
RightHand  -0.580362 0.194104 -12.0842
LeftUpLeg  -3.77862 20.4 -2.30386
LeftLeg  16.8655 28.0632 3.24375
LeftFoot  -12.2746 0.0821974 1.08448
LeftToes  1.06246e-005 4.65856e-005 -8.18502e-006
781
root  -47.3075 40.4207 -31.2008 2.79893 42.4168 4.51456
RightUpLeg  -7.17858 -11.5153 -17.8698
RightLeg  24.5575 -3.77974 -2.13181
RightFoot  -6.06306 -0.124754 1.80089
RightToes  0.00048216 0.542163 -0.142577
Spine  11.5115 0.887754 6.36729
Spine1  8.76031 2.72771 -5.22406
HEad  -7.82413 13.7357 -5.9358
LeftShoulder1  8.36984 -11.9922 -47.1293
LeftArm  -1.89614 12.8378 -25.1554
LeftForeArm  33.8208 -20.7655 -3.48779
LeftHand  -0.25398 0.0180481 5.50724
RightShoulder  5.17243 9.28083 34.5048
RightArm  1.77756 -34.8808 39.8317
RightForeArm  2.13034 19.7215 5.32727
RightHand  -0.394292 -1.19333 -10.7404
LeftUpLeg  -1.6511 14.1898 -2.33308
LeftLeg  16.221 32.6063 2.38293
LeftFoot  -13.0638 0.0891692 0.867682
LeftToes  1.06246e-005 4.65856e-005 -8.18502e-006
782
root  -46.5055 40.44 -31.2069 1.66985 44.3972 3.71653
RightUpLeg  -9.87748 -10.1634 -14.524
RightLeg  28.6313 -2.74642 -1.89193
RightFoot  -6.2416 -0.202517 3.59379
RightToes  0.00048216 0.542163 -0.142577
Spine  11.221 0.55934 5.04632
Spine1  8.97329 1.89039 -4.14684
HEad  -6.90337 14.3219 -6.20013
LeftShoulder1  8.34627 -12.0377 -46.8528
LeftArm  -2.06099 10.4439 -26.2271
LeftForeArm  33.8178 -21.6208 -3.35874
LeftHand  -0.25398 0.0180481 5.50724
RightShoulder  5.14674 9.33378 34.1422
RightArm  4.47185 -33.5406 40.137
RightForeArm  2.69713 21.3681 4.97415
RightHand  -0.344198 -1.31426 -9.65137
LeftUpLeg  0.595394 9.54735 -2.29799
LeftLeg  14.5857 35.5408 1.12641
LeftFoot  -13.647 0.0964248 0.713032
LeftToes  1.06246e-005 4.65856e-005 -8.18502e-006
783
root  -45.6892 40.4895 -31.1907 0.53232 46.9157 2.43723
RightUpLeg  -12.6086 -10.7764 -10.2478
RightLeg  31.0484 -5.91648 -4.0593
RightFoot  -6.6921 -0.190552 3.55821
RightToes  0.00048216 0.542163 -0.142577
Spine  10.8254 -0.0921726 3.78449
Spine1  8.9421 0.567084 -2.27919
HEad  -6.30445 15.0793 -6.35571
LeftShoulder1  8.2585 -11.9936 -46.4829
LeftArm  -2.2565 8.48378 -27.4783
LeftForeArm  33.3287 -23.4289 -3.33858
LeftHand  -0.25398 0.0180481 5.50724
RightShoulder  5.11722 9.39444 33.7282
RightArm  5.88306 -32.3026 40.0534
RightForeArm  3.70443 23.6899 4.87321
RightHand  -0.448582 0.201318 -9.34447
LeftUpLeg  2.66152 7.57011 -2.01105
LeftLeg  12.3375 35.1559 -0.414716
LeftFoot  -14.1649 0.105157 0.812713
LeftToes  1.06246e-005 4.65856e-005 -8.18502e-006
784
root  -44.8797 40.5146 -31.1364 -0.334844 49.9366 1.23063
RightUpLeg  -15.4062 -12.6162 -5.7285
RightLeg  31.0925 -8.49188 -5.71443
RightFoot  -6.59425 -0.138124 2.27088
RightToes  0.00048216 0.542163 -0.142577
Spine  10.6089 -0.882721 2.33768
Spine1  8.55114 -0.937255 -0.177192
HEad  -5.97205 15.296 -6.05339
LeftShoulder1  8.20053 -11.9652 -46.2346
LeftArm  -2.72806 6.4657 -28.4562
LeftForeArm  33.2889 -25.486 -3.6967
LeftHand  -0.25398 0.0180481 5.50724
RightShoulder  5.07351 9.37697 33.4445
RightArm  4.91982 -31.272 39.8777
RightForeArm  4.34782 26.2467 5.40783
RightHand  -0.645164 1.99696 -10.3149
LeftUpLeg  4.26159 6.98938 -1.68307
LeftLeg  10.6834 32.7729 -1.54625
LeftFoot  -14.7338 0.125055 1.23059
LeftToes  1.06246e-005 4.65856e-005 -8.18502e-006
785
root  -44.0627 40.4597 -31.0523 -1.03031 52.7186 0.564956
RightUpLeg  -17.7136 -15.0839 -1.62935
RightLeg  28.3104 -8.16745 -4.98326
RightFoot  -5.68386 -0.158759 2.39754
RightToes  0.00048216 0.542163 -0.142577
Spine  10.9466 -1.37751 0.861086
Spine1  8.11477 -1.97194 1.39827
HEad  -6.09045 14.8801 -5.42613
LeftShoulder1  8.21868 -12.0302 -46.1408
LeftArm  -2.89415 3.85754 -29.2011
LeftForeArm  33.672 -27.3089 -4.07369
LeftHand  -0.25398 0.0180481 5.50724
RightShoulder  5.02879 9.26089 33.4528
RightArm  2.86244 -30.1684 39.8064
RightForeArm  3.52934 28.5947 6.0045
RightHand  -0.873689 3.07397 -12.2318
LeftUpLeg  5.86345 6.66686 -1.70084
LeftLeg  9.87322 30.4636 -2.02699
LeftFoot  -15.5073 0.150674 1.58675
LeftToes  1.06246e-005 4.65856e-005 -8.18502e-006
786
root  -43.2037 40.3018 -30.952 -1.73804 54.8253 0.593627
RightUpLeg  -19.024 -17.7345 1.86563
RightLeg  23.3462 -6.06505 -3.15948
RightFoot  -4.97756 -0.264381 4.15618
RightToes  0.00048216 0.542163 -0.142577
Spine  11.9666 -1.4416 -0.366387
Spine1  7.93464 -2.32231 2.1327
HEad  -6.81636 14.111 -4.78324
LeftShoulder1  8.27583 -12.1545 -46.0921
LeftArm  -2.89654 0.67573 -29.9658
LeftForeArm  34.5963 -28.8754 -4.36964
LeftHand  -0.25398 0.0180481 5.50724
RightShoulder  5.02091 9.1528 33.7248
RightArm  0.512894 -28.668 39.6737
RightForeArm  2.97991 30.2984 6.45144
RightHand  -1.06721 3.69345 -13.9056
LeftUpLeg  8.01457 6.45772 -2.12923
LeftLeg  9.58388 28.7998 -2.11948
LeftFoot  -16.6978 0.166868 1.43805
LeftToes  1.06246e-005 4.65856e-005 -8.18502e-006
787
root  -42.2761 40.0746 -30.8245 -2.27035 56.8297 1.20717
RightUpLeg  -19.5008 -19.7467 4.40602
RightLeg  17.359 -4.59946 -1.41865
RightFoot  -4.69474 -0.345809 5.40465
RightToes  0.00048216 0.542163 -0.142577
Spine  13.2938 -1.41586 -1.39966
Spine1  7.95809 -2.49236 2.4895
HEad  -7.86401 13.0214 -4.32998
LeftShoulder1  8.33556 -12.2952 -46.0095
LeftArm  -2.92017 -2.53735 -30.8494
LeftForeArm  35.6995 -30.2369 -4.61819
LeftHand  -0.25398 0.0180481 5.50724
RightShoulder  5.04833 9.14857 33.9529
RightArm  -1.16349 -26.786 39.343
RightForeArm  3.5261 31.186 6.64523
RightHand  -1.17204 4.18262 -14.4859
LeftUpLeg  10.5394 6.29154 -2.80009
LeftLeg  9.61369 27.2325 -2.09485
LeftFoot  -18.1367 0.176474 1.13306
LeftToes  1.06246e-005 4.65856e-005 -8.18502e-006
788
root  -41.2555 39.8196 -30.6547 -2.24784 59.3511 2.2007
RightUpLeg  -19.3723 -16.7944 4.15955
RightLeg  11.4065 -8.21803 1.05998
RightFoot  -3.90514 -0.382003 5.46609
RightToes  0.00048216 0.542163 -0.142577
Spine  14.3249 -1.60069 -2.24639
Spine1  7.95051 -2.89169 2.84511
HEad  -8.72749 11.4728 -4.08408
LeftShoulder1  8.414 -12.4733 -45.9228
LeftArm  -2.80341 -5.33194 -31.7702
LeftForeArm  36.454 -31.1491 -4.78773
LeftHand  -0.25398 0.0180481 5.50724
RightShoulder  5.06529 9.19056 33.9546
RightArm  -1.57234 -24.6559 38.7767
RightForeArm  3.97303 31.0426 6.58427
RightHand  -1.1861 4.28643 -14.5024
LeftUpLeg  12.9817 6.08875 -3.54204
LeftLeg  9.78557 25.299 -2.03872
LeftFoot  -19.4714 0.211397 1.32121
LeftToes  1.06246e-005 4.65856e-005 -8.18502e-006
789
root  -40.1083 39.5187 -30.4437 -1.71371 62.1366 3.35692
RightUpLeg  -19.355 -9.69789 1.65732
RightLeg  6.55345 -14.403 3.89468
RightFoot  -2.86453 -0.454621 5.85981
RightToes  0.00048216 0.542163 -0.142577
Spine  14.8545 -1.91835 -2.59736
Spine1  7.76004 -3.31907 2.98832
HEad  -9.29207 9.91095 -4.13332
LeftShoulder1  8.53209 -12.7 -45.9165
LeftArm  -2.2812 -7.60126 -32.6855
LeftForeArm  36.7393 -31.3768 -4.82575
LeftHand  -0.25398 0.0180481 5.50724
RightShoulder  5.04974 9.16916 33.8998
RightArm  -0.801271 -22.2094 37.8874
RightForeArm  3.46285 29.4994 6.22952
RightHand  -1.1322 3.78265 -14.5822
LeftUpLeg  15.3235 5.88348 -4.22063
LeftLeg  10.0165 23.1704 -1.88409
LeftFoot  -20.8527 0.254625 1.56178
LeftToes  1.06246e-005 4.65856e-005 -8.18502e-006
790
root  -38.8346 39.1677 -30.1911 -1.17611 64.8061 4.3801
RightUpLeg  -20.2934 -7.16903 0.771754
RightLeg  4.85782 -13.6324 4.54769
RightFoot  -2.85247 -0.541951 7.03613
RightToes  0.00048216 0.542163 -0.142577
Spine  15.1611 -2.20069 -2.38883
Spine1  7.42839 -3.59633 3.00142
HEad  -9.50762 8.4472 -4.5007
LeftShoulder1  8.6516 -12.9122 -45.9602
LeftArm  -1.30513 -9.26135 -33.6656
LeftForeArm  36.7348 -31.0901 -4.75957
LeftHand  -0.25398 0.0180481 5.50724
RightShoulder  5.02116 9.09121 33.9193
RightArm  0.570937 -19.4437 36.6853
RightForeArm  2.93949 26.5918 5.55047
RightHand  -1.02885 3.08119 -14.3184
LeftUpLeg  17.7758 5.7641 -4.54908
LeftLeg  10.3879 20.9106 -1.67291
LeftFoot  -22.4196 0.229516 0.989774
LeftToes  1.06246e-005 4.65856e-005 -8.18502e-006
791
root  -37.4777 38.8447 -29.8735 -0.842643 67.7029 5.08406
RightUpLeg  -21.362 -7.69266 1.09618
RightLeg  6.49753 -9.80846 3.54233
RightFoot  -3.35719 -0.496954 6.74488
RightToes  0.00048216 0.542163 -0.142577
Spine  15.3523 -2.47779 -2.09832
Spine1  7.15605 -4.02475 3.58451
HEad  -9.48924 7.01214 -5.11949
LeftShoulder1  8.71673 -13.0545 -45.9068
LeftArm  0.0210055 -10.1207 -34.7167
LeftForeArm  36.6035 -30.6536 -4.66589
LeftHand  -0.25398 0.0180481 5.50724
RightShoulder  4.98409 9.02117 33.8468
RightArm  1.27248 -16.8241 35.4168
RightForeArm  3.70271 23.0932 4.86404
RightHand  -0.915928 2.68283 -13.3863
LeftUpLeg  20.0939 5.96261 -4.05913
LeftLeg  11.2784 17.8871 -1.43626
LeftFoot  -23.5343 0.131112 -0.0989063
LeftToes  1.06246e-005 4.65856e-005 -8.18502e-006
792
root  -36.0416 38.6332 -29.4795 -0.881158 71.0301 5.08506
RightUpLeg  -22.1865 -9.62919 2.21161
RightLeg  9.78569 -6.50198 2.00473
RightFoot  -2.00079 -0.276522 3.36988
RightToes  0.00048216 0.542163 -0.142577
Spine  15.1273 -2.8303 -1.60078
Spine1  7.11503 -4.67323 4.70862
HEad  -9.47956 5.55362 -5.89153
LeftShoulder1  8.75539 -13.1728 -45.7797
LeftArm  1.69867 -10.0834 -35.5912
LeftForeArm  36.4787 -30.2446 -4.57905
LeftHand  -0.25398 0.0180481 5.50724
RightShoulder  4.92562 8.94771 33.6138
RightArm  -0.841741 -15.0416 34.2354
RightForeArm  6.21114 19.8995 4.87296
RightHand  -0.837456 2.48346 -12.566
LeftUpLeg  21.9622 7.24568 -2.22303
LeftLeg  12.853 13.1774 -1.01832
LeftFoot  -23.4335 0.0156128 -1.17788
LeftToes  1.06246e-005 4.65856e-005 -8.18502e-006
793
root  -34.4768 38.5197 -29.0515 -2.37449 73.8152 3.33888
RightUpLeg  -22.9807 -11.9422 4.01146
RightLeg  13.8564 -3.52993 0.414734
RightFoot  1.73261 0.178179 -1.41552
RightToes  0.00048216 0.542163 -0.142577
Spine  14.3843 -3.1491 0.314097
Spine1  7.29477 -4.88183 4.99788
HEad  -9.69757 3.85155 -6.43114
LeftShoulder1  8.85925 -13.3419 -45.8601
LeftArm  3.61429 -9.09559 -35.8584
LeftForeArm  36.4952 -29.9141 -4.50321
LeftHand  -0.25398 0.0180481 5.50724
RightShoulder  4.88128 8.8673 33.5135
RightArm  -5.17424 -14.3523 33.1118
RightForeArm  8.02215 17.4533 5.19474
RightHand  -0.83999 2.29817 -12.8834
LeftUpLeg  23.5562 9.89544 0.897927
LeftLeg  14.8728 7.22777 -0.287146
LeftFoot  -22.169 -0.186771 -3.38456
LeftToes  1.06246e-005 4.65856e-005 -8.18502e-006
